<svg xmlns="http://www.w3.org/2000/svg" width="21" height="20" viewBox="0 0 21 20">
  <g fill="#9B9B9B" fill-rule="evenodd">
    <path d="M4.725 6.353H.264v13.179h4.461zM5.02 2.276C4.99.984 4.05 0 2.523 0S0 .984 0 2.276c0 1.266.968 2.278 2.466 2.278h.029c1.555 0 2.524-1.012 2.524-2.278zM20.816 11.976c0-4.048-2.201-5.932-5.137-5.932-2.37 0-3.43 1.279-4.022 2.176V6.353H7.195c.059 1.237 0 13.18 0 13.18h4.462v-7.36c0-.395.03-.788.147-1.07.323-.787 1.057-1.601 2.29-1.601 1.615 0 2.26 1.208 2.26 2.98v7.05h4.462v-7.556z"/>
  </g>
</svg>
