<svg xmlns="http://www.w3.org/2000/svg" width="20" height="18" viewBox="0 0 20 18">
  <path fill="#9B9B9B" fill-rule="evenodd" d="M17.641 2.71A4.295 4.295 0 0 0 19.444.317a7.956 7.956 0 0 1-2.606 1.05A3.994 3.994 0 0 0 13.844 0c-2.265 0-4.101 1.937-4.101 4.326 0 .34.034.67.105.986C6.439 5.132 3.417 3.41 1.392.79a4.498 4.498 0 0 0-.555 2.176c0 1.5.724 2.825 1.825 3.603a3.956 3.956 0 0 1-1.86-.541v.053c0 2.097 1.414 3.846 3.293 4.242a3.819 3.819 0 0 1-1.082.152c-.264 0-.522-.026-.771-.076.52 1.718 2.036 2.97 3.832 3.004A7.964 7.964 0 0 1 0 15.196a11.186 11.186 0 0 0 6.289 1.944c7.547 0 11.671-6.593 11.671-12.31 0-.19-.002-.376-.01-.56a8.576 8.576 0 0 0 2.047-2.241 7.863 7.863 0 0 1-2.356.68z"/>
</svg>
