<svg xmlns="http://www.w3.org/2000/svg" width="112" height="201" viewBox="0 0 112 201">
    <g fill="none" fill-rule="evenodd" opacity=".5">
        <g fill="#FFF">
            <path d="M6.942 147.76h2.693a1.938 1.938 0 0 0 1.276-.481c.352-.315.528-.69.528-1.121 0-.438-.182-.815-.546-1.13-.364-.316-.804-.473-1.32-.473h-2.63v3.206zm-1.038-5.273h3.67c1.09 0 2.02.36 2.789 1.078.774.718 1.161 1.582 1.161 2.593 0 .993-.372 1.845-1.117 2.558-.74.706-1.637 1.077-2.693 1.112h-.035l-.106.009-.053-.009H6.942v4.213c0 .287-.1.529-.299.727a1.01 1.01 0 0 1-.74.307.982.982 0 0 1-.73-.307.973.973 0 0 1-.307-.727v-10.52c0-.286.102-.528.308-.727a.982.982 0 0 1 .73-.307zM17.766 153v-3.18h3.836c.288 0 .534-.099.74-.298.205-.204.307-.45.307-.735 0-.287-.102-.532-.308-.736a1.026 1.026 0 0 0-.739-.298h-3.836v-3.18l5.314.018h.01c.287 0 .53-.102.73-.307a.973.973 0 0 0 .308-.727c0-.286-.1-.531-.3-.736a1.01 1.01 0 0 0-.739-.306l-6.362-.018h-.009a.982.982 0 0 0-.73.307.983.983 0 0 0-.308.736v10.502c0 .287.103.529.308.727.2.205.443.307.73.307h6.371c.288 0 .531-.102.73-.307a.973.973 0 0 0 .309-.727c0-.286-.103-.531-.308-.735a.982.982 0 0 0-.73-.307h-5.324zm10.356-5.265h2.676a1.988 1.988 0 0 0 1.267-.481c.346-.31.519-.678.519-1.104 0-.444-.182-.82-.546-1.13-.363-.31-.8-.464-1.31-.464h-2.606v3.18zm6.53-1.585c0 .77-.24 1.469-.722 2.094a3.777 3.777 0 0 1-1.83 1.322l1.997 4.03a.974.974 0 0 1 .044.78.986.986 0 0 1-.519.595c-.147.07-.299.105-.457.105-.429 0-.737-.193-.924-.578l-2.332-4.704h-1.787v4.178c0 .28-.102.523-.308.727a.996.996 0 0 1-.73.298c-.281 0-.525-.099-.73-.298-.2-.204-.3-.446-.3-.727V143.53c0-.286.1-.529.3-.727a1 1 0 0 1 .73-.307h3.643c1.085 0 2.01.356 2.772 1.069.768.712 1.153 1.574 1.153 2.584zm7.831 8.926c1.625 0 3.039-.543 4.242-1.63a.991.991 0 0 0 .334-.718.999.999 0 0 0-.273-.744.987.987 0 0 0-.721-.342 1.008 1.008 0 0 0-.748.272c-.798.724-1.743 1.086-2.834 1.086-1.155 0-2.144-.409-2.965-1.226-.822-.818-1.232-1.802-1.232-2.952 0-1.157.41-2.144 1.232-2.961.821-.818 1.81-1.226 2.965-1.226.956 0 1.81.289 2.56.867.23.17.488.236.775.201a.992.992 0 0 0 .687-.394 1.029 1.029 0 0 0-.185-1.454 6.16 6.16 0 0 0-3.837-1.296c-1.73 0-3.212.613-4.444 1.839-1.226 1.22-1.839 2.695-1.839 4.424 0 1.722.613 3.197 1.84 4.423 1.231 1.22 2.713 1.831 4.443 1.831zM51.151 153v-3.18h3.836c.288 0 .534-.099.74-.298.205-.204.307-.45.307-.735 0-.287-.102-.532-.308-.736a1.026 1.026 0 0 0-.739-.298h-3.836v-3.18l5.315.018h.008c.288 0 .531-.102.73-.307a.973.973 0 0 0 .309-.727c0-.286-.1-.531-.3-.736a1.01 1.01 0 0 0-.739-.306l-6.362-.018h-.008a.982.982 0 0 0-.73.307.983.983 0 0 0-.309.736v10.502c0 .287.103.529.308.727.2.205.443.307.73.307h6.371c.288 0 .531-.102.73-.307a.973.973 0 0 0 .309-.727c0-.286-.103-.531-.308-.735a.982.982 0 0 0-.73-.307H51.15zm10.374-5.238h2.693a1.938 1.938 0 0 0 1.276-.482c.352-.315.528-.69.528-1.121 0-.438-.182-.815-.546-1.13-.364-.316-.804-.473-1.32-.473h-2.63v3.206zm-1.038-5.274h3.67c1.09 0 2.02.36 2.789 1.078.774.718 1.161 1.582 1.161 2.593 0 .993-.372 1.845-1.117 2.558-.74.706-1.637 1.077-2.693 1.112h-.035l-.106.009-.053-.009h-2.578v4.213c0 .287-.1.529-.299.727a1.01 1.01 0 0 1-.74.307.982.982 0 0 1-.73-.307.973.973 0 0 1-.307-.727v-10.52c0-.286.102-.528.307-.727a.982.982 0 0 1 .73-.307zm12.407 11.554c0 .287.103.532.308.736.2.199.443.298.73.298.288 0 .531-.1.73-.298.206-.204.309-.45.309-.736v-9.478h2.622a1 1 0 0 0 .73-.306c.2-.199.3-.441.3-.727s-.1-.529-.3-.727a1 1 0 0 0-.73-.307h-7.312a1.01 1.01 0 0 0-.74.307c-.199.198-.299.44-.299.727 0 .286.1.528.3.727.205.204.451.306.739.306h2.613v9.478zm8.324 1.034c.288 0 .531-.102.73-.307a.973.973 0 0 0 .309-.727v-10.45a.973.973 0 0 0-.308-.727.982.982 0 0 0-.73-.306.982.982 0 0 0-.731.306.973.973 0 0 0-.308.727v10.45c0 .287.103.529.308.727.2.205.443.307.73.307zm9.38-10.512c-1.167 0-2.164.412-2.991 1.236-.833.829-1.25 1.825-1.25 2.987 0 1.162.417 2.155 1.25 2.978.827.83 1.824 1.244 2.992 1.244 1.167 0 2.167-.415 3-1.244.827-.823 1.24-1.816 1.24-2.978 0-1.162-.413-2.158-1.24-2.987-.833-.824-1.833-1.236-3-1.236zm0 10.512c-1.742 0-3.229-.616-4.46-1.848-1.239-1.227-1.857-2.707-1.857-4.441 0-1.735.618-3.218 1.856-4.45 1.232-1.227 2.72-1.84 4.462-1.84 1.742 0 3.232.613 4.47 1.84 1.232 1.232 1.848 2.715 1.848 4.45 0 1.734-.616 3.214-1.848 4.44-1.238 1.233-2.728 1.85-4.47 1.85zm17.291-.394a.659.659 0 0 0 .062.07v.009l.009.008a.959.959 0 0 0 .176.14.262.262 0 0 0 .035.027.484.484 0 0 1 .062.026c.011.012.023.018.035.018.017.011.04.02.07.026.018.012.03.018.035.018a.611.611 0 0 0 .07.017c.03.012.042.015.036.009.024.006.053.011.088.017.024.006.03.006.018 0 .04.006.079.01.114.01.047 0 .097-.004.15-.01l.026-.008a.621.621 0 0 0 .15-.035l.017-.01a1.47 1.47 0 0 0 .141-.06h.009c.04-.024.085-.053.132-.088l.009-.009c.023-.017.026-.02.008-.009a.189.189 0 0 0 .044-.035c.024-.017.036-.029.036-.035.005 0 .017-.011.035-.035l.035-.035.026-.035a.396.396 0 0 0 .036-.052l.026-.027.026-.052.027-.044.017-.044a.27.27 0 0 0 .018-.052.153.153 0 0 0 .018-.044c.005-.006.011-.024.017-.053l.009-.044a.122.122 0 0 0 .009-.052.239.239 0 0 0 .009-.053v-.043a.239.239 0 0 0 .008-.053v-10.512a.973.973 0 0 0-.308-.727.982.982 0 0 0-.73-.306 1.01 1.01 0 0 0-.74.306c-.199.199-.298.441-.298.727v7.481l-6.327-8.111a1.012 1.012 0 0 0-.52-.36.98.98 0 0 0-.633.018.997.997 0 0 0-.51.377.979.979 0 0 0-.194.595v10.494c0 .287.103.529.308.727.2.205.443.307.73.307.288 0 .531-.102.73-.307a.973.973 0 0 0 .309-.727v-7.472l6.327 8.103v.009h.008zM9.766 184.875v9.676h8.774c1.584 0 2.934-.484 4.05-1.451 1.116-.95 1.674-2.106 1.674-3.468 0-1.326-.549-2.445-1.647-3.36-1.098-.93-2.439-1.397-4.023-1.397H9.766zm0-16.1v9.757h8.153c1.53 0 2.862-.493 3.996-1.478 1.116-1.003 1.674-2.186 1.674-3.548 0-1.344-.549-2.472-1.647-3.386-1.098-.932-2.439-1.398-4.023-1.398l-8.153.054zm8.774 32.119H6.58a3.012 3.012 0 0 1-2.241-.94 2.985 2.985 0 0 1-.945-2.232v-32.118c0-.86.306-1.603.918-2.23a3.216 3.216 0 0 1 2.24-.941l11.34-.054c3.384 0 6.246 1.075 8.586 3.225 2.322 2.15 3.483 4.784 3.483 7.902 0 3.01-1.107 5.617-3.32 7.821 2.663 2.186 3.995 4.955 3.995 8.305 0 3.1-1.188 5.752-3.564 7.956-2.358 2.204-5.202 3.306-8.532 3.306zm36.827-32.253c-3.582 0-6.642 1.264-9.18 3.79-2.555 2.544-3.833 5.6-3.833 9.165 0 3.566 1.278 6.612 3.834 9.138 2.537 2.545 5.597 3.817 9.18 3.817 3.581 0 6.65-1.272 9.206-3.817 2.538-2.526 3.807-5.572 3.807-9.138s-1.27-6.62-3.807-9.165c-2.556-2.526-5.625-3.79-9.207-3.79zm0 32.253c-5.346 0-9.908-1.89-13.688-5.671-3.798-3.763-5.697-8.305-5.697-13.627 0-5.321 1.899-9.873 5.697-13.653 3.78-3.763 8.342-5.645 13.688-5.645s9.918 1.882 13.716 5.645c3.78 3.78 5.67 8.332 5.67 13.653 0 5.322-1.89 9.864-5.67 13.627-3.798 3.78-8.37 5.67-13.716 5.67zm53.026-37.87a3.117 3.117 0 0 0-2.376-.537c-.863.16-1.547.59-2.051 1.29l-8.83 12.417-8.828-12.417c-.504-.7-1.188-1.13-2.052-1.29a3.117 3.117 0 0 0-2.376.537c-.72.52-1.152 1.21-1.296 2.07a3.08 3.08 0 0 0 .54 2.365l10.125 14.218-10.125 14.218a3.08 3.08 0 0 0-.54 2.365c.144.86.576 1.54 1.296 2.043.54.394 1.152.59 1.836.59 1.098 0 1.962-.447 2.592-1.343l8.829-12.417 8.829 12.417c.63.896 1.494 1.344 2.591 1.344.684 0 1.296-.197 1.836-.591a3.003 3.003 0 0 0 1.296-2.043 3.08 3.08 0 0 0-.54-2.365l-10.124-14.218 10.124-14.218a3.08 3.08 0 0 0 .54-2.365c-.144-.86-.576-1.55-1.296-2.07z"/>
        </g>
        <path fill="#E9E9E9" d="M20 110V68l36 21v42z"/>
        <path fill="#D7D7D7" d="M92 110V68L56 89v42z"/>
        <path fill="#D7D7D7" d="M30.792 74.296L20 68l21.731-12.073c.288 1.857 1.889 3.348 3.769 3.348h5.239c-.283 2.55-.509 4.076-.676 4.575-.814 2.428-1.764 3.9-2.192 4.489-.273.004-.603.01-.772.01a7.64 7.64 0 0 0-6.48 3.564c.428-.253.895-.457 1.41-.562a4.594 4.594 0 0 1 3.464.666 4.55 4.55 0 0 1 1.974 2.909.91.91 0 0 1-.711 1.073.915.915 0 0 1-1.078-.71 2.753 2.753 0 0 0-1.193-1.756 2.763 2.763 0 0 0-2.09-.402 2.773 2.773 0 0 0-2.169 3.268.91.91 0 0 1-.711 1.072c-.61.018-.989-.278-1.078-.709a4.524 4.524 0 0 1 .35-2.843 7.847 7.847 0 0 0-4.102-.093 6.611 6.611 0 0 1 2.098 2.66.907.907 0 0 1-.327 1.113l-1.638-.955a4.87 4.87 0 0 0-4.026-2.348zm53.38-1.589a7.64 7.64 0 0 0-3.654-.925c-1.352 0-2.67.377-3.83 1.046.712 1.143.834 2.612.171 3.892a.915.915 0 0 1-1.23.392.907.907 0 0 1-.393-1.224 2.133 2.133 0 0 0-.924-2.877 2.154 2.154 0 0 0-2.89.92.916.916 0 0 1-1.23.391.907.907 0 0 1-.394-1.224c.99-1.916 3.347-2.676 5.278-1.731-1.222-2.693-3.925-4.5-6.958-4.5-.967 0-1.91.181-2.81.537-1.404-.751-2.133-1.236-2.636-3.342-.11-.461-.167-2.057-.172-4.787h5l.222-.012c1.522-.17 2.846-1.192 3.362-2.614L91.6 68.412l-7.428 4.295z"/>
        <path fill="#D7D7D7" d="M76.242 77.192a.919.919 0 0 1-.613-.08.907.907 0 0 1-.393-1.224 2.133 2.133 0 0 0-.924-2.877 2.154 2.154 0 0 0-2.89.92.916.916 0 0 1-1.23.391.907.907 0 0 1-.394-1.224c.99-1.916 3.347-2.676 5.278-1.731-1.222-2.693-3.925-4.5-6.958-4.5-.967 0-1.91.181-2.81.537-1.404-.751-2.133-1.236-2.636-3.342-.11-.461-.167-2.057-.172-4.787h5l.222-.012c1.602-.179 2.984-1.301 3.437-2.842L92 68l-.84.49-7.114 4.15a7.64 7.64 0 0 0-3.528-.858c-1.352 0-2.67.377-3.83 1.046.712 1.143.834 2.612.171 3.892a.915.915 0 0 1-.128.187l-.489.285z"/>
        <path fill="#FFF" d="M26.36 44.13l-1.724 1.852c-1.02 1.02-1.536 2.416-1.536 3.97v.402a5.804 5.804 0 0 0 5.8 5.811h11.3a3.85 3.85 0 0 0 1.521-.307l.01.07L20 68 9 54l17.36-9.87zM56 89l15.035 7.042L112 71l-20-3zM40.967 96.042L56 89 20 68 0 71zM86.74 44.452L104 54 92 68 71.159 56.421c.046-.158.083-.321.109-.488.412.15.86.232 1.332.232h11.3c3.206 0 5.8-2.602 5.8-5.811v-.401c0-1.377-.567-2.84-1.48-3.908l-.056-.063-1.423-1.53z"/>
        <path d="M31.838 61.386L55.716 47.75 31.838 61.386M85.28 64.795L55.715 47.751l29.563 17.043v.001"/>
        <path fill="#D9AC8D" d="M79.025 76.158l6.823-3.977-6.823 3.977M55.715 89.225L31.838 75.59v-.001l23.878 13.635"/>
        <g fill="#FFF" fill-rule="nonzero">
            <path d="M71.48 53.792l1.821-18.87a1.78 1.78 0 0 1 2.199.386l11.2 12.037c.6.702 1 1.705 1 2.608v.4c0 2.107-1.7 3.812-3.8 3.812H72.6c-.431 0-.816-.138-1.12-.373zM41.506 53.623a1.79 1.79 0 0 1-1.306.542H28.9c-2.1 0-3.8-1.705-3.8-3.811v-.401c0-1.004.3-1.906 1-2.608l11.2-12.037a1.879 1.879 0 0 1 2.448-.201l1.758 18.516zM69.3 55.57l2.4-24.876c.6-6.62-1-13.14-4.6-18.657L61 2.507c-2.1-3.31-6.9-3.31-9.1 0L46 11.436c-3.7 5.517-5.3 12.237-4.7 18.857l2.4 25.278c.1.902.9 1.705 1.8 1.705h22c.9-.1 1.7-.803 1.8-1.705zM56.4 38.016c-1.6 0-2.9-1.304-2.9-2.909 0-1.605 1.3-2.909 2.9-2.909 1.6 0 2.9 1.304 2.9 2.91 0 1.604-1.3 2.908-2.9 2.908zm0-11.234c-3.4 0-6.2-2.809-6.2-6.22 0-3.41 2.8-6.218 6.2-6.218 3.4 0 6.2 2.808 6.2 6.219 0 3.41-2.8 6.219-6.2 6.219z"/>
        </g>
    </g>
</svg>
