<svg xmlns="http://www.w3.org/2000/svg" width="126" height="45" viewBox="0 0 126 45">
    <defs>
        <linearGradient id="a" x1=".258%" x2="101.258%" y1="49.75%" y2="49.75%">
            <stop offset="0%" stop-color="#3023AE"/>
            <stop offset="47.525%" stop-color="#53A0FD"/>
            <stop offset="100%" stop-color="#8DCC1F"/>
        </linearGradient>
        <linearGradient id="b" x1=".258%" x2="107.308%" y1="49.75%" y2="105.087%">
            <stop offset="0%" stop-color="#3023AE"/>
            <stop offset="47.525%" stop-color="#53A0FD"/>
            <stop offset="100%" stop-color="#8DCC1F"/>
        </linearGradient>
        <linearGradient id="c" x1="50.758%" x2="50.758%" y1="100.25%" y2="-.75%">
            <stop offset="0%" stop-color="#3023AE"/>
            <stop offset="47.525%" stop-color="#53A0FD"/>
            <stop offset="100%" stop-color="#8DCC1F"/>
        </linearGradient>
    </defs>
    <g fill="none" fill-rule="evenodd">
        <g fill="url(#a)" transform="translate(45.796)">
            <path d="M2.96 4.298H4.98a1.46 1.46 0 0 0 .958-.36c.264-.235.396-.514.396-.836 0-.327-.136-.608-.41-.843a1.467 1.467 0 0 0-.99-.353H2.96v2.392zM2.18.364h2.755c.819 0 1.517.268 2.094.803.581.536.872 1.181.872 1.935 0 .74-.28 1.377-.839 1.908-.555.527-1.229.804-2.021.83h-.027a2.407 2.407 0 0 1-.08.007l-.039-.007H2.96v3.143a.734.734 0 0 1-.225.543.76.76 0 0 1-.555.228.74.74 0 0 1-.548-.228.724.724 0 0 1-.231-.543V1.135c0-.214.077-.395.23-.543a.74.74 0 0 1 .55-.228zm8.905 7.842V5.833h2.88c.216 0 .401-.074.555-.222a.745.745 0 0 0 .232-.549.745.745 0 0 0-.232-.549.772.772 0 0 0-.554-.222h-2.88V1.92l3.99.013h.006a.74.74 0 0 0 .548-.229.724.724 0 0 0 .232-.542.756.756 0 0 0-.225-.549.76.76 0 0 0-.555-.229L10.306.37h-.007A.74.74 0 0 0 9.751.6a.731.731 0 0 0-.231.549v7.835c0 .214.077.395.23.543a.74.74 0 0 0 .55.228h4.782a.74.74 0 0 0 .548-.228.724.724 0 0 0 .232-.543.745.745 0 0 0-.232-.549.74.74 0 0 0-.548-.228h-3.997zm7.776-3.928h2.008c.37-.013.687-.133.951-.36.26-.23.39-.505.39-.823 0-.33-.136-.612-.41-.843a1.474 1.474 0 0 0-.984-.346h-1.955v2.372zm4.902-1.183c0 .575-.181 1.096-.542 1.562-.348.462-.806.79-1.374.987l1.5 3.006a.723.723 0 0 1 .032.582.737.737 0 0 1-.39.444.792.792 0 0 1-.343.078.719.719 0 0 1-.694-.43l-1.75-3.51H18.86V8.93c0 .21-.077.39-.231.542a.75.75 0 0 1-.549.223.765.765 0 0 1-.773-.765v-7.79c0-.213.075-.394.225-.542A.753.753 0 0 1 18.08.37h2.735c.815 0 1.509.266 2.081.797.577.532.866 1.175.866 1.928zm5.88 6.66c1.22 0 2.28-.406 3.183-1.216a.738.738 0 0 0 .251-.536.742.742 0 0 0-.204-.555.743.743 0 0 0-.542-.255.76.76 0 0 0-.562.202 3.07 3.07 0 0 1-2.127.81c-.868 0-1.61-.304-2.226-.914-.617-.61-.925-1.344-.925-2.203 0-.862.308-1.598.925-2.208a3.052 3.052 0 0 1 2.226-.915 3.08 3.08 0 0 1 1.923.647.787.787 0 0 0 .58.15.746.746 0 0 0 .516-.294.767.767 0 0 0-.139-1.085 4.644 4.644 0 0 0-2.88-.967c-1.3 0-2.411.457-3.336 1.372-.92.91-1.38 2.01-1.38 3.3 0 1.286.46 2.386 1.38 3.3.925.911 2.037 1.366 3.336 1.366zm6.506-1.55V5.834h2.88c.216 0 .401-.074.555-.222a.745.745 0 0 0 .232-.549.745.745 0 0 0-.232-.549.772.772 0 0 0-.554-.222h-2.88V1.92l3.99.013h.006a.74.74 0 0 0 .548-.229.724.724 0 0 0 .232-.542.756.756 0 0 0-.225-.549.76.76 0 0 0-.555-.229L35.37.37h-.007a.74.74 0 0 0-.548.229.731.731 0 0 0-.231.549v7.835c0 .214.077.395.23.543a.74.74 0 0 0 .55.228h4.782a.74.74 0 0 0 .548-.228.724.724 0 0 0 .232-.543.745.745 0 0 0-.232-.549.74.74 0 0 0-.548-.228h-3.997zm7.789-3.907h2.021a1.46 1.46 0 0 0 .958-.36c.265-.235.397-.514.397-.836 0-.327-.137-.608-.41-.843a1.467 1.467 0 0 0-.99-.353h-1.976v2.392zm-.78-3.934h2.755c.82 0 1.517.268 2.094.803.582.536.872 1.181.872 1.935 0 .74-.28 1.377-.839 1.908-.555.527-1.228.804-2.021.83h-.027a2.407 2.407 0 0 1-.079.007l-.04-.007h-1.935v3.143a.734.734 0 0 1-.225.543.76.76 0 0 1-.555.228.74.74 0 0 1-.548-.228.724.724 0 0 1-.231-.543V1.135c0-.214.077-.395.231-.543a.74.74 0 0 1 .548-.228zm9.315 8.62c0 .213.077.396.231.548a.75.75 0 0 0 .549.222.75.75 0 0 0 .548-.222.745.745 0 0 0 .231-.549v-7.07h1.969a.753.753 0 0 0 .548-.23.734.734 0 0 0 .225-.542.734.734 0 0 0-.225-.542.753.753 0 0 0-.548-.229h-5.49a.76.76 0 0 0-.555.229.734.734 0 0 0-.224.542c0 .214.074.395.224.543a.76.76 0 0 0 .555.228h1.962v7.071zm6.25.77a.74.74 0 0 0 .548-.228.724.724 0 0 0 .231-.543V1.187a.724.724 0 0 0-.231-.542.74.74 0 0 0-.548-.23.74.74 0 0 0-.549.23.724.724 0 0 0-.23.542v7.796c0 .214.076.395.23.543a.74.74 0 0 0 .549.228zm7.042-7.842c-.877 0-1.625.308-2.246.922-.626.619-.938 1.361-.938 2.228 0 .867.312 1.608.938 2.222.62.619 1.37.928 2.246.928.876 0 1.627-.31 2.253-.928a3.012 3.012 0 0 0 .931-2.222c0-.867-.31-1.61-.931-2.228a3.1 3.1 0 0 0-2.253-.922zm0 7.842c-1.308 0-2.425-.46-3.35-1.378-.929-.915-1.393-2.02-1.393-3.314s.464-2.4 1.394-3.32C63.34.829 64.456.37 65.765.37c1.308 0 2.427.458 3.356 1.373.925.919 1.387 2.025 1.387 3.32 0 1.293-.462 2.398-1.387 3.313-.93.919-2.048 1.378-3.356 1.378zm12.981-.294a.492.492 0 0 0 .046.053v.006l.007.007a.718.718 0 0 0 .132.104c.004.005.013.011.026.02.014.004.03.01.047.02.009.008.017.013.026.013.013.008.031.015.053.02.013.008.022.012.026.012.014.005.031.009.053.013a.876.876 0 0 0 .106.02c.03.004.06.006.086.006.035 0 .072-.002.112-.006l.02-.007a.469.469 0 0 0 .112-.026l.013-.006c.036-.013.07-.029.106-.046h.007a.967.967 0 0 0 .099-.065l.006-.007c.018-.013.02-.015.007-.006a.141.141 0 0 0 .033-.027c.018-.013.027-.021.027-.026.004 0 .013-.008.026-.026l.026-.026.02-.026a.295.295 0 0 0 .027-.04l.02-.019.02-.04.02-.032.012-.033a.201.201 0 0 0 .014-.039.114.114 0 0 0 .013-.032c.004-.005.009-.018.013-.04l.007-.032a.09.09 0 0 0 .006-.04.177.177 0 0 0 .007-.039v-.032a.177.177 0 0 0 .006-.04V1.154a.724.724 0 0 0-.23-.542.74.74 0 0 0-.55-.229.76.76 0 0 0-.554.229.734.734 0 0 0-.225.542v5.581L73.824.684a.76.76 0 0 0-.39-.268.74.74 0 0 0-.475.013.748.748 0 0 0-.383.281.727.727 0 0 0-.145.444v7.83c0 .213.077.394.23.542a.74.74 0 0 0 .55.228.74.74 0 0 0 .547-.228.724.724 0 0 0 .232-.543V3.41l4.75 6.045v.006h.006zM5.08 31.986v7.219h6.587c1.19 0 2.203-.361 3.04-1.083.838-.709 1.257-1.57 1.257-2.587 0-.989-.412-1.824-1.236-2.506-.825-.695-1.831-1.043-3.02-1.043H5.079zm0-12.01v7.278h6.12c1.15 0 2.15-.367 3-1.103.839-.748 1.257-1.63 1.257-2.646 0-1.003-.412-1.845-1.236-2.527-.824-.695-1.831-1.042-3.02-1.042l-6.122.04zm6.587 23.96h-8.98a2.268 2.268 0 0 1-1.682-.701 2.22 2.22 0 0 1-.71-1.664V17.61c0-.642.23-1.197.69-1.665a2.422 2.422 0 0 1 1.682-.701l8.514-.04c2.54 0 4.689.802 6.445 2.406 1.743 1.604 2.615 3.569 2.615 5.895 0 2.245-.831 4.19-2.493 5.835 2 1.63 3 3.696 3 6.195 0 2.313-.892 4.291-2.676 5.935-1.77 1.645-3.905 2.467-6.405 2.467zm27.648-24.06c-2.69 0-4.987.942-6.892 2.827-1.919 1.898-2.878 4.177-2.878 6.837s.96 4.933 2.878 6.817c1.905 1.899 4.203 2.848 6.892 2.848s4.993-.95 6.912-2.848c1.905-1.884 2.858-4.157 2.858-6.817s-.953-4.94-2.858-6.837c-1.92-1.885-4.223-2.828-6.912-2.828zm0 24.06c-4.014 0-7.44-1.41-10.277-4.23-2.851-2.807-4.277-6.196-4.277-10.166 0-3.97 1.426-7.365 4.277-10.186 2.838-2.807 6.263-4.21 10.277-4.21 4.013 0 7.446 1.403 10.297 4.21 2.838 2.82 4.256 6.216 4.256 10.186 0 3.97-1.418 7.359-4.256 10.166-2.851 2.82-6.284 4.23-10.297 4.23zm39.81-28.251a2.351 2.351 0 0 0-1.784-.401 2.366 2.366 0 0 0-1.54.962l-6.629 9.264-6.628-9.264a2.366 2.366 0 0 0-1.54-.962 2.351 2.351 0 0 0-1.784.4c-.54.388-.865.903-.973 1.545-.108.641.027 1.23.405 1.764L66.253 29.6l-7.601 10.607a2.287 2.287 0 0 0-.405 1.765c.108.641.432 1.15.973 1.524.405.294.864.44 1.378.44.824 0 1.473-.333 1.946-1.002l6.628-9.263 6.628 9.263c.473.669 1.122 1.003 1.946 1.003.514 0 .973-.147 1.378-.441.54-.375.865-.883.973-1.524a2.287 2.287 0 0 0-.405-1.765L72.09 29.6l7.6-10.607a2.287 2.287 0 0 0 .406-1.764 2.309 2.309 0 0 0-.973-1.544z"/>
        </g>
        <path fill="url(#b)" d="M6.837 22.424V8.289l12.307 7.067v14.136z" transform="translate(0 14.597)"/>
        <path fill="url(#c)" d="M31.451 22.424V8.289l-12.307 7.067v14.136z" transform="translate(0 14.597)"/>
        <path fill="#405AD1" d="M10.527 25.005l-3.69-2.12 7.43-4.062c.098.624.645 1.126 1.288 1.126h1.79c-.096.859-.173 1.372-.23 1.54-.279.817-.604 1.313-.75 1.51l-.264.004c-.933 0-1.752.477-2.215 1.2.146-.086.306-.154.482-.19a1.591 1.591 0 0 1 1.184.225c.351.227.591.575.675.979a.306.306 0 0 1-.243.36.313.313 0 0 1-.368-.238.926.926 0 0 0-.408-.591.957.957 0 0 0-.715-.136.934.934 0 0 0-.741 1.1.306.306 0 0 1-.243.361c-.209.006-.338-.093-.369-.238a1.501 1.501 0 0 1 .12-.957 2.723 2.723 0 0 0-1.403-.031c.305.226.556.528.718.895.06.137.01.294-.112.375l-.56-.322a1.67 1.67 0 0 0-1.376-.79zm18.248-.535a2.644 2.644 0 0 0-2.558.04c.243.385.285.88.058 1.31a.313.313 0 0 1-.42.133.303.303 0 0 1-.135-.413.713.713 0 0 0-.316-.968.742.742 0 0 0-.988.31.315.315 0 0 1-.42.132.303.303 0 0 1-.135-.413 1.371 1.371 0 0 1 1.805-.582 2.622 2.622 0 0 0-3.34-1.334c-.48-.253-.73-.416-.9-1.125-.038-.155-.058-.692-.06-1.61h1.71l.075-.005c.52-.057.973-.4 1.15-.88l7.013 3.96-2.539 1.445z"/>
        <path fill="#3127B0" d="M26.064 25.98a.319.319 0 0 1-.21-.027.303.303 0 0 1-.134-.413.713.713 0 0 0-.316-.968.742.742 0 0 0-.988.31.315.315 0 0 1-.42.132.303.303 0 0 1-.135-.413 1.371 1.371 0 0 1 1.805-.582 2.622 2.622 0 0 0-3.34-1.334c-.48-.253-.73-.416-.9-1.125-.038-.155-.058-.692-.06-1.61h1.71l.075-.005a1.38 1.38 0 0 0 1.175-.956l7.125 3.897-.287.165-2.432 1.396a2.645 2.645 0 0 0-1.206-.288c-.462 0-.913.126-1.31.352.244.384.286.879.06 1.31a.308.308 0 0 1-.045.062l-.167.096z"/>
        <path fill="#85C63F" d="M9.011 14.852l-.589.624c-.348.343-.525.813-.525 1.336v.135c0 1.08.887 1.956 1.983 1.956h3.863c.186 0 .362-.037.52-.104l.003.024-7.429 4.063-3.76-4.712 5.934-3.322zM19.144 29.953l5.14 2.37 14.004-8.428-6.837-1.01z"/>
        <path fill="#85C63F" d="M14.005 32.324l5.14-2.37-12.308-7.068L0 23.896zM29.653 14.96l5.9 3.214-4.102 4.712-7.125-3.897c.016-.053.029-.108.038-.165.14.051.294.079.455.079h3.863c1.096 0 1.983-.876 1.983-1.956v-.135c0-.464-.194-.956-.506-1.315l-.02-.021-.486-.515z"/>
        <path d="M10.884 20.66l8.163-4.589-8.163 4.589M29.154 21.807l-10.107-5.736 10.107 5.736"/>
        <path fill="#D9AC8D" d="M27.016 25.631l2.332-1.338-2.332 1.338M19.047 30.029l-8.163-4.589 8.163 4.589"/>
        <g fill="#3A47C5" fill-rule="nonzero">
            <path d="M24.436 18.104l.623-6.35a.615.615 0 0 1 .751.129l3.83 4.051c.204.236.341.574.341.878v.135a1.29 1.29 0 0 1-1.299 1.283H24.82a.624.624 0 0 1-.383-.126zM14.19 18.047a.617.617 0 0 1-.447.183H9.88a1.29 1.29 0 0 1-1.3-1.283v-.135c0-.338.103-.642.343-.878l3.828-4.051a.65.65 0 0 1 .837-.068l.601 6.232zM23.69 18.702l.821-8.372a9.696 9.696 0 0 0-1.572-6.279L20.853.844c-.717-1.114-2.358-1.114-3.11 0l-2.017 3.004c-1.265 1.857-1.812 4.119-1.607 6.347l.82 8.507c.034.304.308.574.616.574h7.52c.308-.034.582-.27.616-.574zm-4.41-5.907a.986.986 0 0 1-.99-.98c0-.54.444-.978.99-.978.548 0 .992.438.992.979 0 .54-.444.979-.991.979zm0-3.781c-1.161 0-2.119-.946-2.119-2.093 0-1.148.958-2.094 2.12-2.094 1.162 0 2.12.946 2.12 2.094 0 1.147-.958 2.093-2.12 2.093z"/>
        </g>
    </g>
</svg>
